<svg xmlns="http://www.w3.org/2000/svg" width="16" height="16" viewBox="0 0 16 16"><path fill="#2E4057" d="M13.652 2.014C12.196.67 10.384 0 8.22 0 5.945 0 4.007.763 2.407 2.29.807 3.82.005 5.72.005 7.994c0 2.18.762 4.054 2.284 5.625 1.529 1.57 3.581 2.356 6.166 2.356 1.557 0 3.086-.32 4.585-.961a.978.978 0 0 0 .527-1.261.973.973 0 0 0-1.29-.528c-1.303.56-2.58.84-3.826.84-1.98 0-3.516-.602-4.604-1.811-1.085-1.206-1.63-2.624-1.63-4.25 0-1.766.584-3.239 1.747-4.422 1.16-1.18 2.59-1.772 4.285-1.772 1.561 0 2.88.485 3.956 1.456s1.613 2.193 1.613 3.666c0 1.007-.247 1.848-.74 2.516-.491.671-1.003 1.004-1.534 1.004-.287 0-.43-.154-.43-.463 0-.251.02-.544.055-.883l.606-4.957H9.69l-.134.486c-.531-.434-1.114-.652-1.747-.652-1.003 0-1.864.4-2.577 1.2-.717.798-1.072 1.827-1.072 3.085 0 1.229.316 2.223.951 2.975.636.756 1.398 1.131 2.291 1.131.798 0 1.48-.336 2.046-1.004.427.642 1.056.962 1.887.962 1.222 0 2.278-.531 3.168-1.597.89-1.062 1.336-2.346 1.336-3.848 0-1.904-.727-3.53-2.187-4.872zM8.85 9.512c-.368.495-.808.746-1.32.746-.349 0-.629-.182-.84-.547-.216-.365-.323-.818-.323-1.362 0-.672.15-1.213.45-1.623.3-.41.67-.62 1.114-.62.384 0 .727.154 1.026.463.3.31.45.72.45 1.235a2.82 2.82 0 0 1-.557 1.708z" opacity=".3"/></svg>