<svg xmlns="http://www.w3.org/2000/svg" width="16" height="16" viewBox="0 0 16 16"><path d="M8.286 15.98c1.223-.175 2.296-1.452 2.971-3.338a14.632 14.632 0 0 0-2.971-.35v3.687zm1.954-.3c.073-.022.145-.043.217-.066l.179-.061c.07-.024.14-.05.21-.076.06-.022.119-.046.178-.07.068-.03.136-.058.203-.086l.176-.08.197-.096.171-.09c.064-.034.128-.07.191-.105.057-.032.113-.065.168-.099l.185-.114c.055-.035.11-.07.164-.107.06-.04.12-.083.179-.125l.158-.114.173-.136c.051-.04.102-.081.152-.123.057-.047.112-.096.167-.145.049-.044.098-.086.145-.13a7.98 7.98 0 0 0 .161-.157c.046-.045.093-.09.138-.137l.025-.027a9.601 9.601 0 0 0-1.96-.754A7.08 7.08 0 0 1 9.99 15.75c.023-.006.047-.01.07-.017l.18-.054zM16 8.281h-3.429a14.83 14.83 0 0 1-.577 3.956 9.966 9.966 0 0 1 2.17.864A7.988 7.988 0 0 0 16 8.281zM8.286 7.71H12a14.327 14.327 0 0 0-.563-3.816c-1.034.236-2.09.362-3.151.376v3.44zm0-7.699v3.687c1-.014 1.995-.131 2.971-.35C10.582 1.462 9.509.185 8.286.011zm0 11.709c1.06.015 2.117.14 3.15.377.36-1.24.549-2.524.564-3.816H8.286v3.44zm5.878-8.83a9.913 9.913 0 0 1-2.17.863c.37 1.287.564 2.618.577 3.956H16a7.99 7.99 0 0 0-1.836-4.82zm-.386-.434l-.025-.027-.138-.137c-.053-.052-.106-.105-.16-.156l-.146-.13a7.927 7.927 0 0 0-.167-.146c-.05-.042-.1-.081-.15-.122a7.517 7.517 0 0 0-.176-.136c-.051-.04-.104-.077-.156-.115l-.18-.126-.163-.106-.186-.117-.167-.097a7.266 7.266 0 0 0-.193-.107c-.057-.028-.114-.06-.171-.088l-.2-.097-.175-.08c-.068-.03-.136-.056-.204-.085-.06-.024-.118-.048-.177-.07a5.894 5.894 0 0 0-.21-.076c-.06-.02-.12-.042-.18-.061a6.81 6.81 0 0 0-.216-.066c-.06-.017-.12-.035-.18-.05-.023-.007-.046-.012-.07-.018a7.091 7.091 0 0 1 1.828 2.968 9.621 9.621 0 0 0 1.962-.755zM0 7.71h3.429c.013-1.34.207-2.67.577-3.957a9.913 9.913 0 0 1-2.17-.863A7.986 7.986 0 0 0 0 7.71zm7.714 8.27v-3.687c-1 .014-1.995.131-2.971.35.675 1.885 1.748 3.162 2.971 3.336zm0-7.699H4c.015 1.292.204 2.575.563 3.816a15.06 15.06 0 0 1 3.151-.376V8.28zm0-8.27C6.491.185 5.418 1.462 4.743 3.348c.976.219 1.971.336 2.971.35V.01zm0 4.259a15.05 15.05 0 0 1-3.15-.376A14.28 14.28 0 0 0 4 7.709h3.714V4.27zM6.009.243c-.023.006-.046.01-.07.017L5.76.31a5.45 5.45 0 0 0-.395.127l-.21.075-.178.071-.203.086-.175.08C4.53.78 4.466.813 4.4.846a5.78 5.78 0 0 0-.362.195c-.058.032-.114.065-.17.098-.062.037-.123.076-.184.114-.055.036-.11.071-.164.108-.06.04-.12.083-.179.125l-.158.114c-.059.044-.114.09-.173.136-.051.04-.102.08-.152.123-.057.047-.112.096-.167.145l-.146.13c-.054.051-.107.104-.16.156-.046.046-.093.09-.138.137a.216.216 0 0 1-.025.027c.624.323 1.28.576 1.96.755A7.074 7.074 0 0 1 6.008.243zM2.385 13.698c.053.053.106.105.16.156l.146.13a4.589 4.589 0 0 0 .317.268c.058.046.115.093.176.137.051.039.104.076.156.115l.18.126.163.106c.062.04.124.079.187.117l.166.097c.064.037.128.072.193.107.057.028.114.06.172.088.065.033.132.065.2.097l.174.08c.068.03.136.056.204.085.06.024.118.048.177.07.07.027.14.052.21.076.06.021.12.042.18.061.071.024.143.045.216.066l.18.051.07.017a7.094 7.094 0 0 1-1.828-2.967 9.624 9.624 0 0 0-1.96.754c.009.008.017.018.025.027.043.046.09.09.136.136zm-.549-.598a10.013 10.013 0 0 1 2.17-.863 14.83 14.83 0 0 1-.577-3.956H0a7.99 7.99 0 0 0 1.836 4.82z" fill="#2E4057" opacity=".3"/></svg>