<svg xmlns="http://www.w3.org/2000/svg" width="16" height="16" viewBox="0 0 16 16"><path d="M12.153 10.575c-.522-.516-1.174-.516-1.693 0-.396.392-.792.785-1.18 1.184-.107.11-.197.133-.327.06-.256-.14-.529-.253-.775-.406-1.148-.722-2.109-1.65-2.96-2.694-.423-.52-.799-1.075-1.062-1.7-.053-.127-.043-.21.06-.313.396-.383.782-.775 1.171-1.168.542-.545.542-1.184-.003-1.733-.31-.312-.619-.618-.928-.931-.32-.32-.635-.642-.958-.958-.522-.509-1.174-.509-1.693.003-.4.393-.782.795-1.188 1.181-.376.356-.565.792-.605 1.3-.063.83.14 1.61.426 2.373.585 1.576 1.476 2.977 2.558 4.26a15.829 15.829 0 0 0 5.242 4.102c.918.446 1.87.788 2.904.845.712.04 1.33-.14 1.826-.695.34-.38.722-.725 1.081-1.088.532-.539.536-1.19.007-1.723-.632-.635-1.268-1.267-1.903-1.9zm-.635-2.652l1.227-.21a5.49 5.49 0 0 0-1.533-2.96 5.466 5.466 0 0 0-3.127-1.56l-.173 1.234c.921.13 1.76.546 2.422 1.208a4.236 4.236 0 0 1 1.184 2.288zm1.919-5.335A9.044 9.044 0 0 0 8.248 0l-.173 1.234a7.854 7.854 0 0 1 4.484 2.235 7.848 7.848 0 0 1 2.199 4.242l1.227-.21a9.109 9.109 0 0 0-2.548-4.913z" fill="#2E4057" opacity=".3"/></svg>